<svg width="1134" height="1134" xmlns="http://www.w3.org/2000/svg" xmlns:xlink="http://www.w3.org/1999/xlink" overflow="hidden"><defs><clipPath id="clip0"><rect x="0" y="0" width="1134" height="1134"/></clipPath><clipPath id="clip1"><rect x="84" y="366" width="591" height="636"/></clipPath><clipPath id="clip2"><rect x="84" y="366" width="591" height="636"/></clipPath><clipPath id="clip3"><rect x="62" y="366" width="636" height="636"/></clipPath></defs><g clip-path="url(#clip0)"><rect x="0" y="0" width="1134" height="1134" fill="#099BDD"/><rect x="0" y="29" width="1134" height="272" fill="#FFFFFF"/><text fill="#099BDD" font-family="Corbel,Corbel_MSFontService,sans-serif" font-weight="400" font-size="123" transform="translate(374.375 203)">ORDER<tspan fill="#FFFFFF" font-size="59" x="332.373" y="208">There</tspan><tspan fill="#FFFFFF" font-size="59" x="485.728" y="208">are</tspan><tspan fill="#FFFFFF" font-size="59" x="332.373" y="275">enough</tspan><tspan fill="#FFFFFF" font-size="59" x="528.235" y="275">rules</tspan><tspan fill="#FFFFFF" font-size="59" x="332.373" y="342">and </tspan><tspan fill="#FFFFFF" font-size="59" x="435.221" y="342">policies</tspan><tspan fill="#FFFFFF" font-size="59" x="628.916" y="342">for</tspan><tspan fill="#FFFFFF" font-size="59" x="332.373" y="409">a </tspan><tspan fill="#FFFFFF" font-size="59" x="372.712" y="409">stable</tspan><tspan fill="#FFFFFF" font-size="59" x="332.373" y="476">environment</tspan></text><rect x="85" y="366" width="590" height="635" fill="#F7F7F7"/><g clip-path="url(#clip1)"><g clip-path="url(#clip2)"><g clip-path="url(#clip3)"><path d="M152.135 92.6042 482.865 92.6042 482.865 542.396 152.135 542.396 152.135 92.6042ZM112.448 582.083 522.552 582.083 522.552 52.9167 112.448 52.9167 112.448 582.083Z" fill="#099BDD" transform="matrix(1.00029 0 0 1 62.4064 366)"/><path d="M330.729 152.135 443.177 152.135 443.177 178.594 330.729 178.594Z" fill="#099BDD" transform="matrix(1.00029 0 0 1 62.4064 366)"/><path d="M330.729 257.969 443.177 257.969 443.177 284.427 330.729 284.427Z" fill="#099BDD" transform="matrix(1.00029 0 0 1 62.4064 366)"/><path d="M330.729 469.635 443.177 469.635 443.177 496.094 330.729 496.094Z" fill="#099BDD" transform="matrix(1.00029 0 0 1 62.4064 366)"/><path d="M330.729 363.802 443.177 363.802 443.177 390.26 330.729 390.26Z" fill="#099BDD" transform="matrix(1.00029 0 0 1 62.4064 366)"/><path d="M289.719 137.583 271.198 119.062 227.542 162.719 210.344 145.521 191.823 164.042 227.542 199.76Z" fill="#099BDD" transform="matrix(1.00029 0 0 1 62.4064 366)"/><path d="M289.719 243.417 271.198 224.896 227.542 268.552 210.344 251.354 191.823 269.875 227.542 305.594Z" fill="#099BDD" transform="matrix(1.00029 0 0 1 62.4064 366)"/><path d="M289.719 349.25 271.198 330.729 227.542 374.385 210.344 357.188 191.823 375.708 227.542 411.427Z" fill="#099BDD" transform="matrix(1.00029 0 0 1 62.4064 366)"/><path d="M289.719 453.76 271.198 435.24 227.542 478.896 210.344 461.698 191.823 480.219 227.542 515.938Z" fill="#099BDD" transform="matrix(1.00029 0 0 1 62.4064 366)"/></g></g></g></g></svg>