<svg width="1134" height="1134" xmlns="http://www.w3.org/2000/svg" xmlns:xlink="http://www.w3.org/1999/xlink" overflow="hidden"><defs><clipPath id="clip0"><rect x="0" y="0" width="1134" height="1134"/></clipPath><clipPath id="clip1"><rect x="84" y="366" width="591" height="636"/></clipPath><clipPath id="clip2"><rect x="84" y="366" width="591" height="636"/></clipPath><clipPath id="clip3"><rect x="62" y="366" width="636" height="636"/></clipPath></defs><g clip-path="url(#clip0)"><rect x="0" y="0" width="1134" height="1134" fill="#099BDD"/><rect x="0" y="29" width="1134" height="272" fill="#FFFFFF"/><text fill="#099BDD" font-family="Corbel,Corbel_MSFontService,sans-serif" font-weight="400" font-size="123" transform="translate(410.73 203)">GOAL<tspan fill="#FFFFFF" font-size="59" x="300.192" y="208">My</tspan><tspan fill="#FFFFFF" font-size="59" x="388.205" y="208">purpose</tspan><tspan fill="#FFFFFF" font-size="59" x="596.402" y="208">in</tspan><tspan fill="#FFFFFF" font-size="59" x="300.192" y="275">life</tspan><tspan fill="#FFFFFF" font-size="59" x="387.038" y="275">is</tspan><tspan fill="#FFFFFF" font-size="59" x="436.045" y="275">reflected</tspan><tspan fill="#FFFFFF" font-size="59" x="300.192" y="342">in</tspan><tspan fill="#FFFFFF" font-size="59" x="356.533" y="342">the</tspan><tspan fill="#FFFFFF" font-size="59" x="448.88" y="342">work</tspan><tspan fill="#FFFFFF" font-size="59" x="300.192" y="409">that</tspan><tspan fill="#FFFFFF" font-size="59" x="412.375" y="409">I</tspan><tspan fill="#FFFFFF" font-size="59" x="438.379" y="409">d</tspan><tspan fill="#FFFFFF" font-size="59" x="469.883" y="409">o</tspan></text><rect x="85" y="366" width="590" height="635" fill="#F7F7F7"/><g clip-path="url(#clip1)"><g clip-path="url(#clip2)"><g clip-path="url(#clip3)"><path d="M494.771 144.198C478.896 144.198 465.667 130.969 465.667 115.094 465.667 99.2188 478.896 85.9896 494.771 85.9896 510.646 85.9896 523.875 99.2188 523.875 115.094L523.875 115.094C523.875 130.969 510.646 144.198 494.771 144.198 494.771 144.198 494.771 144.198 494.771 144.198ZM494.771 46.3021C472.281 46.3021 451.115 57.5469 438.547 76.0677 425.979 94.5885 423.333 118.401 431.271 139.568L462.359 207.698 488.818 263.922C490.802 267.229 494.771 268.552 497.417 266.568 498.74 265.906 499.401 265.245 500.062 263.922L526.521 207.698 557.609 139.568C565.547 118.401 562.901 94.5885 550.333 76.0677 538.427 57.5469 517.26 46.3021 494.771 46.3021Z" fill="#099BDD" transform="matrix(1.00029 0 0 1 62.4064 366)"/><path d="M157.427 408.781C137.583 408.781 121.047 392.245 121.047 372.401 121.047 352.557 137.583 336.021 157.427 336.021 177.271 336.021 193.807 352.557 193.807 372.401 193.807 372.401 193.807 372.401 193.807 372.401 193.807 392.245 177.271 408.781 157.427 408.781 157.427 408.781 157.427 408.781 157.427 408.781L157.427 408.781ZM157.427 287.734C129.646 287.734 103.188 301.625 87.3125 324.776 71.4375 347.927 68.1302 377.693 78.7135 403.49L117.078 488.156 150.151 557.609C152.135 561.578 157.427 562.901 161.396 560.917 162.719 560.255 164.042 558.932 164.703 557.609L197.776 488.156 236.141 403.49C246.063 377.693 242.755 347.927 227.542 324.776 211.667 301.625 185.208 287.734 157.427 287.734L157.427 287.734Z" fill="#099BDD" transform="matrix(1.00029 0 0 1 62.4064 366)"/><path d="M250.031 562.24 232.833 562.24C224.896 562.24 217.62 562.24 210.344 562.24L210.344 522.552C216.958 522.552 224.896 522.552 232.833 522.552L250.031 522.552 250.031 562.24Z" fill="#099BDD" transform="matrix(1.00029 0 0 1 62.4064 366)"/><path d="M277.151 562.24 277.151 522.552C291.703 522.552 304.271 522.552 316.177 521.891L317.5 561.578C304.932 562.24 291.703 562.24 277.151 562.24Z" fill="#099BDD" transform="matrix(1.00029 0 0 1 62.4064 366)"/><path d="M343.958 560.255 341.974 520.568C355.865 519.906 369.094 519.245 380.339 517.922L384.307 557.609C372.401 558.932 358.51 559.594 343.958 560.255L343.958 560.255Z" fill="#099BDD" transform="matrix(1.00029 0 0 1 62.4064 366)"/><path d="M412.089 554.302 406.135 515.276C418.703 513.292 430.609 511.307 442.516 508L453.099 546.365C439.208 549.672 425.979 552.318 412.089 554.302Z" fill="#099BDD" transform="matrix(1.00029 0 0 1 62.4064 366)"/><path d="M480.88 536.443 465.005 500.062C473.604 497.417 480.88 491.464 486.172 484.188L521.229 503.37C511.307 518.583 497.417 529.828 480.88 536.443L480.88 536.443Z" fill="#099BDD" transform="matrix(1.00029 0 0 1 62.4064 366)"/><path d="M486.833 470.958C485.51 462.359 481.542 453.76 475.589 447.807L503.37 420.026C515.938 432.594 523.875 448.469 525.859 466.328L486.833 470.958Z" fill="#099BDD" transform="matrix(1.00029 0 0 1 62.4064 366)"/><path d="M459.052 435.901C448.469 430.609 437.224 425.979 425.979 422.672L437.224 384.969C451.115 388.938 465.005 394.229 477.573 400.844L459.052 435.901Z" fill="#099BDD" transform="matrix(1.00029 0 0 1 62.4064 366)"/><path d="M400.844 416.057 390.26 413.411C381 410.766 371.078 408.781 361.818 406.135L372.401 367.771C381 370.417 390.26 372.401 399.521 375.047L410.104 377.693 400.844 416.057Z" fill="#099BDD" transform="matrix(1.00029 0 0 1 62.4064 366)"/><path d="M334.698 396.875C318.823 390.922 304.271 381 293.688 367.771L326.099 345.281C332.052 352.557 340.651 357.849 349.25 360.495L334.698 396.875Z" fill="#099BDD" transform="matrix(1.00029 0 0 1 62.4064 366)"/><path d="M323.453 332.052 283.766 329.406C285.089 310.224 295.672 293.026 310.885 281.781L335.359 312.87C323.453 322.792 323.453 330.068 323.453 332.052L323.453 332.052Z" fill="#099BDD" transform="matrix(1.00029 0 0 1 62.4064 366)"/><path d="M353.88 302.948 338.005 266.568C351.234 260.615 365.125 255.984 379.016 252.677L388.276 291.042C376.37 294.349 365.125 298.318 353.88 302.948L353.88 302.948Z" fill="#099BDD" transform="matrix(1.00029 0 0 1 62.4064 366)"/><path d="M412.75 286.411 406.135 247.385C423.333 244.74 437.885 242.755 447.146 242.094L450.453 281.781C443.839 282.443 429.286 283.766 412.75 286.411L412.75 286.411Z" fill="#099BDD" transform="matrix(1.00029 0 0 1 62.4064 366)"/></g></g></g></g></svg>