<svg width="1134" height="1134" xmlns="http://www.w3.org/2000/svg" xmlns:xlink="http://www.w3.org/1999/xlink" overflow="hidden"><defs><clipPath id="clip0"><rect x="0" y="0" width="1134" height="1134"/></clipPath><clipPath id="clip1"><rect x="84" y="366" width="591" height="636"/></clipPath><clipPath id="clip2"><rect x="84" y="366" width="591" height="636"/></clipPath><clipPath id="clip3"><rect x="62" y="366" width="636" height="636"/></clipPath></defs><g clip-path="url(#clip0)"><rect x="0" y="0" width="1134" height="1134" fill="#099BDD"/><rect x="0" y="29" width="1134" height="272" fill="#FFFFFF"/><text fill="#099BDD" font-family="Corbel,Corbel_MSFontService,sans-serif" font-weight="400" font-size="123" transform="translate(295.53 203)">FREEDOM<tspan fill="#FFFFFF" font-size="59" x="418.871" y="208">I am </tspan><tspan fill="#FFFFFF" font-size="59" x="418.871" y="275">independent</tspan><tspan fill="#FFFFFF" font-size="59" x="418.871" y="342">of</tspan><tspan fill="#FFFFFF" font-size="59" x="480.546" y="342">others</tspan><tspan fill="#FFFFFF" font-size="59" x="647.571" y="342">with</tspan><tspan fill="#FFFFFF" font-size="59" x="418.871" y="409">my</tspan><tspan fill="#FFFFFF" font-size="59" x="507.384" y="409">own </tspan><tspan fill="#FFFFFF" font-size="59" x="623.234" y="409">work</tspan><tspan fill="#FFFFFF" font-size="59" x="418.871" y="476">and </tspan><tspan fill="#FFFFFF" font-size="59" x="418.871" y="543">responsibilities</tspan></text><rect x="85" y="366" width="590" height="635" fill="#F7F7F7"/><g clip-path="url(#clip1)"><g clip-path="url(#clip2)"><g clip-path="url(#clip3)"><path d="M586.052 229.857 484.584 233.032C477.242 227.211 462.293 219.207 436.562 219.803 402.101 220.861 385.763 245.401 354.409 273.248 328.613 215.239 280.855 151.672 238.125 117.74 233.784 114.336 227.505 115.097 224.102 119.439 222.82 121.075 222.079 123.071 221.985 125.148 221.832 154.367 225.027 183.506 231.51 211.997 271.198 235.942 307.247 264.914 327.62 294.878 324.115 297.326 320.344 299.773 316.442 302.154 277.217 245.996 173.104 186.531 100.74 171.516 95.334 170.42 90.0628 173.914 88.9661 179.32 88.5653 181.298 88.773 183.351 89.5615 185.208 110.001 230.717 170.259 306.784 226.483 349.515L62.8385 512.366C60.6549 514.775 60.8373 518.497 63.2461 520.681 64.9328 522.21 67.3497 522.63 69.4531 521.758 116.284 497.02 198.768 458.192 265.311 451.644 393.171 439.076 463.748 361.95 487.892 250.627L586.317 233.098C587.198 232.859 587.719 231.951 587.48 231.069 587.301 230.408 586.733 229.926 586.052 229.857Z" fill="#099BDD" transform="matrix(1.00029 0 0 1 62.4064 366)"/></g></g></g></g></svg>