<svg width="1134" height="1134" xmlns="http://www.w3.org/2000/svg" xmlns:xlink="http://www.w3.org/1999/xlink" overflow="hidden"><defs><clipPath id="clip0"><rect x="0" y="0" width="1134" height="1134"/></clipPath><clipPath id="clip1"><rect x="84" y="366" width="591" height="636"/></clipPath><clipPath id="clip2"><rect x="84" y="366" width="591" height="636"/></clipPath><clipPath id="clip3"><rect x="62" y="366" width="636" height="636"/></clipPath></defs><g clip-path="url(#clip0)"><rect x="0" y="0" width="1134" height="1134" fill="#099BDD"/><rect x="0" y="29" width="1134" height="272" fill="#FFFFFF"/><text fill="#099BDD" font-family="Corbel,Corbel_MSFontService,sans-serif" font-weight="400" font-size="123" transform="translate(273.86 203)">CURIOSITY<tspan fill="#FFFFFF" font-size="59" x="435.67" y="208">I </tspan><tspan fill="#FFFFFF" font-size="59" x="461.674" y="208">have</tspan><tspan fill="#FFFFFF" font-size="59" x="589.526" y="208">plenty</tspan><tspan fill="#FFFFFF" font-size="59" x="435.67" y="275">of</tspan><tspan fill="#FFFFFF" font-size="59" x="497.346" y="275">things</tspan><tspan fill="#FFFFFF" font-size="59" x="660.037" y="275">to</tspan><tspan fill="#FFFFFF" font-size="59" x="435.67" y="342">investigate</tspan><tspan fill="#FFFFFF" font-size="59" x="435.67" y="409">and </tspan><tspan fill="#FFFFFF" font-size="59" x="538.519" y="409">to</tspan><tspan fill="#FFFFFF" font-size="59" x="601.861" y="409">think</tspan><tspan fill="#FFFFFF" font-size="59" x="435.67" y="476">about</tspan></text><rect x="85" y="366" width="590" height="635" fill="#F7F7F7"/><g clip-path="url(#clip1)"><g clip-path="url(#clip2)"><g clip-path="url(#clip3)"><path d="M565.547 500.062 482.865 417.38C471.62 406.135 456.406 402.167 441.854 404.812L412.75 375.708C438.547 342.635 453.76 300.302 453.76 255.323 453.76 146.182 364.464 56.8854 255.323 56.8854 146.182 56.8854 56.8854 146.182 56.8854 255.323 56.8854 364.464 146.182 453.76 255.323 453.76 300.302 453.76 341.974 438.547 375.708 412.75L404.812 441.854C402.167 456.406 406.135 471.62 417.38 482.865L500.062 565.547C509.323 574.807 521.229 579.438 533.135 579.438 545.042 579.438 556.948 574.807 566.208 565.547 583.406 547.026 583.406 517.922 565.547 500.062ZM254.661 413.411C167.349 413.411 95.9115 341.974 95.9115 254.661 95.9115 167.349 167.349 95.9115 254.661 95.9115 341.974 95.9115 413.411 167.349 413.411 254.661 413.411 341.974 341.974 413.411 254.661 413.411Z" fill="#099BDD" transform="matrix(1.00029 0 0 1 62.4064 366)"/></g></g></g></g></svg>