<svg width="1134" height="1134" xmlns="http://www.w3.org/2000/svg" xmlns:xlink="http://www.w3.org/1999/xlink" overflow="hidden"><defs><clipPath id="clip0"><rect x="0" y="0" width="1134" height="1134"/></clipPath><clipPath id="clip1"><rect x="84" y="366" width="591" height="636"/></clipPath><clipPath id="clip2"><rect x="84" y="366" width="591" height="636"/></clipPath><clipPath id="clip3"><rect x="62" y="366" width="636" height="636"/></clipPath></defs><g clip-path="url(#clip0)"><rect x="0" y="0" width="1134" height="1134" fill="#099BDD"/><rect x="0" y="29" width="1134" height="272" fill="#FFFFFF"/><text fill="#099BDD" font-family="Corbel,Corbel_MSFontService,sans-serif" font-weight="400" font-size="123" transform="translate(357.289 203)">HONOR<tspan fill="#FFFFFF" font-size="59" x="355.024" y="208">I </tspan><tspan fill="#FFFFFF" font-size="59" x="381.028" y="208">feel</tspan><tspan fill="#FFFFFF" font-size="59" x="483.377" y="208">proud</tspan><tspan fill="#FFFFFF" font-size="59" x="355.024" y="275">that</tspan><tspan fill="#FFFFFF" font-size="59" x="467.207" y="275">my</tspan><tspan fill="#FFFFFF" font-size="59" x="355.024" y="342">personal </tspan><tspan fill="#FFFFFF" font-size="59" x="355.024" y="409">values</tspan><tspan fill="#FFFFFF" font-size="59" x="519.382" y="409">are</tspan><tspan fill="#FFFFFF" font-size="59" x="355.024" y="476">reflected</tspan><tspan fill="#FFFFFF" font-size="59" x="583.725" y="476">in </tspan><tspan fill="#FFFFFF" font-size="59" x="355.024" y="543">how</tspan><tspan fill="#FFFFFF" font-size="59" x="471.041" y="543">I </tspan><tspan fill="#FFFFFF" font-size="59" x="497.045" y="543">work</tspan></text><rect x="85" y="366" width="590" height="635" fill="#F7F7F7"/><g clip-path="url(#clip1)"><g clip-path="url(#clip2)"><g clip-path="url(#clip3)"><path d="M277.68 154.629 268.334 89.5945C267.875 86.6894 268.684 83.7267 270.556 81.4586 283.956 65.75 282.085 42.1528 266.376 28.7529 250.668 15.3529 227.07 17.2245 213.67 32.9332 200.27 48.6418 202.142 72.2392 217.851 85.639 219.037 86.651 220.285 87.5877 221.589 88.4436 224.049 90.0999 225.682 92.7285 226.08 95.6667L235.4 160.734Z" fill="#099BDD" transform="matrix(1.00029 0 0 1 62.4064 366)"/><path d="M176.173 236.663C181.653 235.877 186.746 233.382 190.725 229.533 193.542 226.927 197.568 226.092 201.189 227.363L230.188 236.994 250.382 377.521 322.282 352.24 304.178 226.358 329.274 208.955C332.366 206.726 336.435 206.383 339.857 208.062 352.885 214.871 368.967 209.828 375.776 196.8 377.473 193.553 378.482 189.989 378.738 186.333 379.809 171.628 368.756 158.839 354.051 157.768 345.957 157.178 338.035 160.302 332.522 166.258 330.95 167.879 328.87 168.911 326.628 169.181L192.484 188.456C190.204 188.821 187.868 188.389 185.87 187.232 173.165 179.743 156.795 183.971 149.306 196.676 141.817 209.381 146.045 225.751 158.749 233.24 163.987 236.328 170.122 237.535 176.14 236.663Z" fill="#099BDD" transform="matrix(1.00029 0 0 1 62.4064 366)"/><path d="M529.312 546.193 516.083 469.543 437.416 451.571 382.607 486.767 309.377 497.093 369.914 473.022 419.755 435.458 377.177 360.984 178.739 430.748 145.666 499.891 86.1351 539.578 68.3154 612.338 575.469 612.338 529.312 546.193Z" fill="#099BDD" transform="matrix(1.00029 0 0 1 62.4064 366)"/></g></g></g></g></svg>