<svg width="1134" height="1134" xmlns="http://www.w3.org/2000/svg" xmlns:xlink="http://www.w3.org/1999/xlink" overflow="hidden"><defs><clipPath id="clip0"><rect x="0" y="0" width="1134" height="1134"/></clipPath><clipPath id="clip1"><rect x="84" y="366" width="591" height="636"/></clipPath><clipPath id="clip2"><rect x="84" y="366" width="591" height="636"/></clipPath><clipPath id="clip3"><rect x="62" y="366" width="636" height="636"/></clipPath></defs><g clip-path="url(#clip0)"><rect x="0" y="0" width="1134" height="1134" fill="#099BDD"/><rect x="0" y="29" width="1134" height="272" fill="#FFFFFF"/><text fill="#099BDD" font-family="Corbel,Corbel_MSFontService,sans-serif" font-weight="400" font-size="123" transform="translate(357.459 203)">STATUS<tspan fill="#FFFFFF" font-size="59" x="356.942" y="208">My</tspan><tspan fill="#FFFFFF" font-size="59" x="444.955" y="208">position</tspan><tspan fill="#FFFFFF" font-size="59" x="652.818" y="208">is</tspan><tspan fill="#FFFFFF" font-size="59" x="356.942" y="275">good</tspan><tspan fill="#FFFFFF" font-size="59" x="493.962" y="275">and </tspan><tspan fill="#FFFFFF" font-size="59" x="356.942" y="342">recognized</tspan><tspan fill="#FFFFFF" font-size="59" x="636.983" y="342">by</tspan><tspan fill="#FFFFFF" font-size="59" x="356.942" y="409">the</tspan><tspan fill="#FFFFFF" font-size="59" x="449.289" y="409">people</tspan><tspan fill="#FFFFFF" font-size="59" x="356.942" y="476">who</tspan><tspan fill="#FFFFFF" font-size="59" x="472.959" y="476">work</tspan><tspan fill="#FFFFFF" font-size="59" x="605.978" y="476">with</tspan><tspan fill="#FFFFFF" font-size="59" x="356.942" y="543">me</tspan></text><rect x="85" y="366" width="590" height="635" fill="#F7F7F7"/><g clip-path="url(#clip1)"><g clip-path="url(#clip2)"><g clip-path="url(#clip3)"><path d="M483.996 458.51C462.287 303.609 504.104 126.246 504.104 126.246 466.837 102.281 400.718 85.9896 316.653 85.9896 232.589 85.9896 166.463 102.281 129.196 126.246 129.196 126.246 171.013 303.609 149.304 458.51 93.3582 461.116 57.8115 466.937 57.8115 479.987 57.8115 514.932 173.699 549.01 316.647 549.01 459.595 549.01 575.469 514.932 575.469 479.987 575.469 466.937 539.935 461.116 483.996 458.51ZM441.193 471.236C428.539 473.34 415.396 475.304 401.876 477.024 389.612 359.198 404.667 221.119 413.253 157.745 427.29 155.203 441.161 151.821 454.792 147.618 447.483 198.643 428.81 348.337 441.193 471.236Z" fill="#099BDD" transform="matrix(1.00029 0 0 1 62.4064 366)"/></g></g></g></g></svg>