<svg width="1134" height="1134" xmlns="http://www.w3.org/2000/svg" xmlns:xlink="http://www.w3.org/1999/xlink" overflow="hidden"><defs><clipPath id="clip0"><rect x="0" y="0" width="1134" height="1134"/></clipPath><clipPath id="clip1"><rect x="84" y="366" width="591" height="636"/></clipPath><clipPath id="clip2"><rect x="84" y="366" width="591" height="636"/></clipPath><clipPath id="clip3"><rect x="62" y="366" width="636" height="636"/></clipPath></defs><g clip-path="url(#clip0)"><rect x="0" y="0" width="1134" height="1134" fill="#099BDD"/><rect x="0" y="29" width="1134" height="272" fill="#FFFFFF"/><text fill="#099BDD" font-family="Corbel,Corbel_MSFontService,sans-serif" font-weight="400" font-size="123" transform="translate(302.948 203)">MASTERY<tspan fill="#FFFFFF" font-size="59" x="411.453" y="208">My</tspan><tspan fill="#FFFFFF" font-size="59" x="499.466" y="208">work</tspan><tspan fill="#FFFFFF" font-size="59" x="411.453" y="275">challenges</tspan><tspan fill="#FFFFFF" font-size="59" x="680.159" y="275">my</tspan><tspan fill="#FFFFFF" font-size="59" x="411.453" y="342">competence</tspan><tspan fill="#FFFFFF" font-size="59" x="411.453" y="409">but </tspan><tspan fill="#FFFFFF" font-size="59" x="505.3" y="409">is</tspan><tspan fill="#FFFFFF" font-size="59" x="554.307" y="409">still </tspan><tspan fill="#FFFFFF" font-size="59" x="411.453" y="476">within</tspan><tspan fill="#FFFFFF" font-size="59" x="574.81" y="476">my</tspan><tspan fill="#FFFFFF" font-size="59" x="411.453" y="543">abilities</tspan></text><rect x="85" y="366" width="590" height="635" fill="#F7F7F7"/><g clip-path="url(#clip1)"><g clip-path="url(#clip2)"><g clip-path="url(#clip3)"><path d="M282.773 460.507C290.866 456.057 295.925 447.584 296.003 438.348L296.003 436.166C295.932 424.313 287.714 414.068 276.159 411.427L276.159 384.373C293.049 365.673 297.089 338.671 286.411 315.846 278.342 297.458 240.44 271.595 226.88 264.12 220.762 260.708 216.069 255.217 213.651 248.642 219.807 253.059 227.562 254.624 234.95 252.942 246.79 248.642 257.043 259.556 259.887 263.062 267.229 271.198 280.392 267.163 292.232 262.136 310.856 254.032 320.978 233.732 316.243 213.982 315.913 203.861 265.311 170.127 265.311 170.127L263.525 157.626C263.525 155.443 255.72 132.887 221.589 127.066 221.589 127.066 227.74 104.973 218.877 100.608 200.356 92.075 132.887 105.238 95.4484 165.563 67.7333 210.211 67.0719 264.253 93.5964 317.698 100.211 330.928 117.144 357.386 117.144 377.23L117.144 411.427C105.589 414.068 97.3713 424.313 97.3005 436.166L97.3005 438.348C97.3779 447.584 102.437 456.057 110.53 460.507L110.53 483.592 84.0714 483.592 84.0714 536.509 308.967 536.509 308.967 483.592 282.509 483.592Z" fill="#099BDD" transform="matrix(1.00029 0 0 1 62.4064 366)"/><path d="M534.128 483.592 534.128 460.507C542.221 456.057 547.279 447.584 547.357 438.348L547.357 436.166C547.32 422.189 536 410.868 522.023 410.832L514.615 410.832 507.272 271.926 389.004 271.926 381.661 410.832 374.253 410.832C360.277 410.868 348.956 422.189 348.919 436.166L348.919 438.348C348.997 447.584 354.056 456.057 362.148 460.507L362.148 483.592 335.69 483.592 335.69 536.509 560.586 536.509 560.586 483.592Z" fill="#099BDD" transform="matrix(1.00029 0 0 1 62.4064 366)"/><path d="M507.669 219.009C518.629 219.009 527.513 227.893 527.513 238.853L527.513 238.853C527.513 249.812 518.629 258.696 507.669 258.696L388.607 258.696C377.647 258.696 368.763 249.812 368.763 238.853L368.763 238.853C368.763 227.893 377.647 219.009 388.607 219.009Z" fill="#099BDD" transform="matrix(1.00029 0 0 1 62.4064 366)"/><path d="M527.513 106.561 494.44 106.561 494.44 133.019 481.211 133.019 481.211 106.561 415.065 106.561 415.065 133.019 401.836 133.019 401.836 106.561 368.763 106.561 368.763 185.936 384.175 185.936 387.482 205.78 448.138 205.78 508.794 205.78 512.101 185.936 527.513 185.936 527.513 106.561Z" fill="#099BDD" transform="matrix(1.00029 0 0 1 62.4064 366)"/></g></g></g></g></svg>