<svg width="1134" height="1134" xmlns="http://www.w3.org/2000/svg" xmlns:xlink="http://www.w3.org/1999/xlink" overflow="hidden"><defs><clipPath id="clip0"><rect x="0" y="0" width="1134" height="1134"/></clipPath><clipPath id="clip1"><rect x="84" y="366" width="591" height="636"/></clipPath><clipPath id="clip2"><rect x="84" y="366" width="591" height="636"/></clipPath><clipPath id="clip3"><rect x="62" y="366" width="636" height="636"/></clipPath></defs><g clip-path="url(#clip0)"><rect x="0" y="0" width="1134" height="1134" fill="#099BDD"/><rect x="0" y="29" width="1134" height="272" fill="#FFFFFF"/><text fill="#099BDD" font-family="Corbel,Corbel_MSFontService,sans-serif" font-weight="400" font-size="123" transform="translate(175.806 203)">RELATEDNESS<tspan fill="#FFFFFF" font-size="59" x="537.203" y="208">I </tspan><tspan fill="#FFFFFF" font-size="59" x="563.207" y="208">have</tspan><tspan fill="#FFFFFF" font-size="59" x="691.059" y="208">good</tspan><tspan fill="#FFFFFF" font-size="59" x="537.203" y="275">social </tspan><tspan fill="#FFFFFF" font-size="59" x="685.559" y="275">contacts</tspan><tspan fill="#FFFFFF" font-size="59" x="537.203" y="342">with</tspan><tspan fill="#FFFFFF" font-size="59" x="655.888" y="342">the</tspan><tspan fill="#FFFFFF" font-size="59" x="537.203" y="409">people</tspan><tspan fill="#FFFFFF" font-size="59" x="714.563" y="409">in and </tspan><tspan fill="#FFFFFF" font-size="59" x="537.203" y="476">around</tspan><tspan fill="#FFFFFF" font-size="59" x="721.397" y="476">my</tspan><tspan fill="#FFFFFF" font-size="59" x="537.203" y="543">work</tspan></text><rect x="85" y="366" width="590" height="635" fill="#F7F7F7"/><g clip-path="url(#clip1)"><g clip-path="url(#clip2)"><g clip-path="url(#clip3)"><path d="M549.01 165.365C549.01 183.63 534.203 198.438 515.938 198.438 497.672 198.438 482.865 183.63 482.865 165.365 482.865 147.099 497.672 132.292 515.938 132.292 534.203 132.292 549.01 147.099 549.01 165.365Z" fill="#099BDD" transform="matrix(1.00029 0 0 1 62.4064 366)"/><path d="M152.135 165.365C152.135 183.63 137.328 198.438 119.062 198.438 100.797 198.438 85.9896 183.63 85.9896 165.365 85.9896 147.099 100.797 132.292 119.062 132.292 137.328 132.292 152.135 147.099 152.135 165.365Z" fill="#099BDD" transform="matrix(1.00029 0 0 1 62.4064 366)"/><path d="M416.719 165.365C416.719 183.63 401.912 198.438 383.646 198.438 365.38 198.438 350.573 183.63 350.573 165.365 350.573 147.099 365.38 132.292 383.646 132.292 401.912 132.292 416.719 147.099 416.719 165.365Z" fill="#099BDD" transform="matrix(1.00029 0 0 1 62.4064 366)"/><path d="M284.427 165.365C284.427 183.63 269.62 198.438 251.354 198.438 233.089 198.438 218.281 183.63 218.281 165.365 218.281 147.099 233.089 132.292 251.354 132.292 269.62 132.292 284.427 147.099 284.427 165.365Z" fill="#099BDD" transform="matrix(1.00029 0 0 1 62.4064 366)"/><path d="M594.651 327.422 573.484 230.849C572.823 228.203 571.5 225.557 568.854 223.573 560.917 217.62 552.318 212.328 542.396 209.682 533.797 207.036 525.198 205.052 515.938 205.052 506.677 205.052 497.417 206.375 489.479 209.682 479.557 212.99 470.958 217.62 463.021 223.573 460.375 225.557 459.052 228.203 458.391 230.849L449.792 269.875 449.792 269.875 441.193 230.849C440.531 228.203 439.208 225.557 436.562 223.573 428.625 217.62 420.026 212.328 410.104 209.682 401.505 207.036 392.906 205.052 383.646 205.052 374.385 205.052 365.125 206.375 357.188 209.682 347.266 212.99 338.667 217.62 330.729 223.573 328.083 225.557 326.76 228.203 326.099 230.849L317.5 269.214 317.5 269.875 308.901 230.849C308.24 228.203 306.917 225.557 304.271 223.573 296.333 217.62 287.734 212.328 277.812 209.682 269.214 207.036 260.615 205.052 251.354 205.052 242.094 205.052 232.833 206.375 224.896 209.682 214.974 212.99 206.375 217.62 198.438 223.573 195.792 225.557 194.469 228.203 193.807 230.849L185.208 269.214 185.208 269.214 176.609 230.849C175.948 228.203 174.625 225.557 171.979 223.573 164.042 217.62 155.443 212.328 145.521 209.682 136.922 207.036 128.323 205.052 119.062 205.052 109.802 205.052 100.542 206.375 92.6042 209.682 82.6823 212.99 74.0833 217.62 66.1458 223.573 63.5 225.557 62.1771 228.203 61.5156 230.849L40.349 326.76C38.3646 334.036 42.9948 341.974 50.9323 343.297 51.5938 343.297 52.2552 343.297 52.9167 343.297 58.8698 343.297 64.1615 339.328 66.1458 332.714L85.9896 244.74 85.9896 291.703 66.1458 390.26 85.9896 390.26 85.9896 502.708 112.448 502.708 112.448 390.26 125.677 390.26 125.677 502.708 152.135 502.708 152.135 390.26 171.979 390.26 152.135 291.703 152.135 244.74 171.979 333.375C173.302 339.328 178.594 343.958 184.547 343.958L184.547 343.958C190.5 343.958 195.792 339.99 197.115 333.375L218.281 244.74 218.281 350.573 218.281 502.708 244.74 502.708 244.74 350.573 257.969 350.573 257.969 502.708 284.427 502.708 284.427 350.573 284.427 244.74 304.271 333.375C305.594 339.328 310.885 343.958 317.5 343.958 317.5 343.958 317.5 343.958 317.5 343.958L317.5 343.958C323.453 343.958 328.745 339.99 330.068 333.375L350.573 244.74 350.573 292.365 330.729 390.26 350.573 390.26 350.573 502.708 377.031 502.708 377.031 390.26 390.26 390.26 390.26 502.708 416.719 502.708 416.719 390.26 436.562 390.26 416.719 291.042 416.719 244.74 436.562 333.375C437.885 339.328 443.177 343.958 449.792 343.958 449.792 343.958 449.792 343.958 449.792 343.958L449.792 343.958C449.792 343.958 449.792 343.958 449.792 343.958 455.745 343.958 461.036 339.99 463.021 333.375L482.865 244.74 482.865 350.573 482.865 502.708 509.323 502.708 509.323 350.573 522.552 350.573 522.552 502.708 549.01 502.708 549.01 350.573 549.01 244.74 568.854 333.375C570.177 339.328 575.469 343.958 582.083 343.958 583.406 343.958 585.391 343.958 586.714 343.297 592.667 340.651 595.974 334.036 594.651 327.422Z" fill="#099BDD" transform="matrix(1.00029 0 0 1 62.4064 366)"/></g></g></g></g></svg>