<svg width="1134" height="1134" xmlns="http://www.w3.org/2000/svg" xmlns:xlink="http://www.w3.org/1999/xlink" overflow="hidden"><defs><clipPath id="clip0"><rect x="0" y="0" width="1134" height="1134"/></clipPath><clipPath id="clip1"><rect x="84" y="366" width="591" height="636"/></clipPath><clipPath id="clip2"><rect x="84" y="366" width="591" height="636"/></clipPath><clipPath id="clip3"><rect x="62" y="366" width="636" height="636"/></clipPath></defs><g clip-path="url(#clip0)"><rect x="0" y="0" width="1134" height="1134" fill="#099BDD"/><rect x="0" y="29" width="1134" height="272" fill="#FFFFFF"/><text fill="#099BDD" font-family="Corbel,Corbel_MSFontService,sans-serif" font-weight="400" font-size="123" transform="translate(205.427 203)">ACCEPTANCE<tspan fill="#FFFFFF" font-size="59" x="508.974" y="208">The </tspan><tspan fill="#FFFFFF" font-size="59" x="613.489" y="208">people</tspan><tspan fill="#FFFFFF" font-size="59" x="508.974" y="275">around</tspan><tspan fill="#FFFFFF" font-size="59" x="693.168" y="275">me</tspan><tspan fill="#FFFFFF" font-size="59" x="508.974" y="342">approve</tspan><tspan fill="#FFFFFF" font-size="59" x="719.005" y="342">of</tspan><tspan fill="#FFFFFF" font-size="59" x="508.974" y="409">what</tspan><tspan fill="#FFFFFF" font-size="59" x="642.66" y="409">I do and </tspan><tspan fill="#FFFFFF" font-size="59" x="508.974" y="476">who</tspan><tspan fill="#FFFFFF" font-size="59" x="624.991" y="476">I am</tspan></text><rect x="85" y="366" width="590" height="635" fill="#F7F7F7"/><g clip-path="url(#clip1)"><g clip-path="url(#clip2)"><g clip-path="url(#clip3)"><path d="M519.906 112.481 115.094 112.481C102.727 112.61 92.7332 122.604 92.6042 134.971L92.6042 408.232C92.5016 420.55 102.404 430.619 114.722 430.722 114.846 430.723 114.97 430.723 115.094 430.722L362.479 430.722 452.438 522.665 452.438 431.383 519.906 431.383C532.273 431.254 542.267 421.26 542.396 408.894L542.396 135.639C542.554 123.044 532.5 112.691 519.906 112.481ZM317.5 357.188C317.5 357.188 230.254 290.46 230.254 236.557 230.254 200.627 285.155 162.13 317.5 226.292 349.832 162.13 404.74 200.627 404.74 236.557 404.74 290.46 317.5 357.188 317.5 357.188Z" fill="#099BDD" transform="matrix(1.00029 0 0 1 62.4064 366)"/></g></g></g></g></svg>