<svg width="1134" height="1134" xmlns="http://www.w3.org/2000/svg" xmlns:xlink="http://www.w3.org/1999/xlink" overflow="hidden"><defs><clipPath id="clip0"><rect x="0" y="0" width="1134" height="1134"/></clipPath><clipPath id="clip1"><rect x="84" y="366" width="591" height="636"/></clipPath><clipPath id="clip2"><rect x="84" y="366" width="591" height="636"/></clipPath><clipPath id="clip3"><rect x="62" y="366" width="636" height="636"/></clipPath></defs><g clip-path="url(#clip0)"><rect x="0" y="0" width="1134" height="1134" fill="#099BDD"/><rect x="0" y="29" width="1134" height="272" fill="#FFFFFF"/><text fill="#099BDD" font-family="Corbel,Corbel_MSFontService,sans-serif" font-weight="400" font-size="123" transform="translate(362.79 203)">POWER<tspan fill="#FFFFFF" font-size="59" x="353.698" y="208">There</tspan><tspan fill="#FFFFFF" font-size="59" x="507.054" y="208">i</tspan><tspan fill="#FFFFFF" font-size="59" x="520.723" y="208">s</tspan><tspan fill="#FFFFFF" font-size="59" x="353.698" y="275">enough</tspan><tspan fill="#FFFFFF" font-size="59" x="549.56" y="275">room</tspan><tspan fill="#FFFFFF" font-size="59" x="353.698" y="342">for</tspan><tspan fill="#FFFFFF" font-size="59" x="435.043" y="342">me</tspan><tspan fill="#FFFFFF" font-size="59" x="524.557" y="342">to</tspan><tspan fill="#FFFFFF" font-size="59" x="353.698" y="409">influence</tspan><tspan fill="#FFFFFF" font-size="59" x="353.698" y="476">what</tspan><tspan fill="#FFFFFF" font-size="59" x="487.384" y="476">happens</tspan><tspan fill="#FFFFFF" font-size="59" x="353.698" y="543">around</tspan><tspan fill="#FFFFFF" font-size="59" x="537.892" y="543">me</tspan></text><rect x="85" y="366" width="590" height="635" fill="#F7F7F7"/><g clip-path="url(#clip1)"><g clip-path="url(#clip2)"><g clip-path="url(#clip3)"><path d="M493.184 273.721 541.356 273.721 541.356 293.567 493.184 293.567Z" fill="#099BDD" transform="matrix(0.606296 -0.795239 0.795473 0.606117 40.5255 889.042)"/><path d="M520.465 321.583 568.15 321.583 568.15 341.427 520.465 341.427Z" fill="#099BDD" transform="matrix(0.991294 -0.133812 0.133852 0.991001 22.9322 441.81)"/><path d="M379.675 313.555 399.512 313.555 399.512 361.246 379.675 361.246Z" fill="#099BDD" transform="matrix(0.192269 -0.981342 0.981632 0.192212 46.004 1020.86)"/><path d="M336.563 479.339 377.885 490.915 406.466 550.347 427.051 582.083 615.064 582.083 574.338 436.529 516.07 383.646 498.938 395.856 499.123 395.837 496.153 467.181 493.249 467.181 478.426 404.336 430.186 383.646 358.616 453.853 321.25 464.317 336.563 479.339Z" fill="#099BDD" transform="matrix(1.00029 0 0 1 62.4064 366)"/><path d="M193.708 487.369 279.321 450.982 326.304 497.073 363.895 507.603 389.129 560.083 403.397 582.083 138.814 582.083 193.708 487.369Z" fill="#099BDD" transform="matrix(1.00029 0 0 1 62.4064 366)"/><path d="M399.521 194.952C401.469 189.02 401.698 182.659 400.182 176.603L415.502 160.609C419.791 156.136 419.715 149.054 415.33 144.674L398.859 128.217C394.477 123.834 387.395 123.758 382.918 128.045L367.123 143.179C360.716 141.452 353.936 141.694 347.669 143.874 284.467 91.2085 206.005 55.1789 146.764 53.4062 144.241 53.2356 141.98 54.9567 141.473 57.4344 140.885 59.8744 142.092 62.3913 144.363 63.4603 194.998 87.4646 244.872 124.004 306.897 183.006 303.993 189.317 303.151 196.383 304.489 203.2L16.7415 478.823C12.189 483.175 12.0264 490.393 16.3784 494.946 16.4305 495 16.4832 495.055 16.5365 495.108L48.4386 526.984C52.8862 531.433 60.0982 531.433 64.547 526.986 64.6065 526.926 64.6654 526.866 64.7237 526.805L340.592 238.786C347.289 239.979 354.192 239.074 360.356 236.194 405.997 283.494 452.682 337.807 482.984 396.531 483.874 398.297 485.682 399.412 487.66 399.415 488.141 399.414 488.619 399.347 489.082 399.217 491.497 398.565 493.113 396.295 492.939 393.799 489.287 333.792 452.722 257.109 399.521 194.952Z" fill="#099BDD" transform="matrix(1.00029 0 0 1 62.4064 366)"/></g></g></g></g></svg>